<svg width="500" height="300" viewBox="0 0 500 300" fill="none" xmlns="http://www.w3.org/2000/svg">
  <!-- Main circular design -->
  <g transform="translate(44, 180)">
    <!-- Outer circle -->
    <path d="M0 60C0 26.863 26.863 0 60 0C93.137 0 120 26.863 120 60C120 93.137 93.137 120 60 120C26.863 120 0 93.137 0 60Z" fill="#6B46C1"/>
    
    <!-- Inner curved elements -->
    <path d="M20 60C20 37.909 37.909 20 60 20C82.091 20 100 37.909 100 60C100 82.091 82.091 100 60 100C37.909 100 20 82.091 20 60Z" fill="white"/>
    
    <!-- Top curved element -->
    <path d="M60 0C93.137 0 120 26.863 120 60C120 70 110 80 100 80C80 80 60 60 60 40V0Z" fill="#8B5CF6"/>
    
    <!-- Bottom curved accent -->
    <path d="M40 80C50 90 70 90 80 80C90 70 90 50 80 40C70 30 50 30 40 40C30 50 30 70 40 80Z" fill="#6B46C1" opacity="0.8"/>
  </g>
  
  <!-- Edimy text -->
  <g transform="translate(170, 200)">
    <text x="0" y="0" font-family="Arial, sans-serif" font-size="72" font-weight="bold" fill="#6B46C1">Edimy</text>
  </g>
</svg>
